<?xml version="1.0" standalone="no"?>
<!DOCTYPE svg PUBLIC "-//W3C//DTD SVG 20010904//EN"
 "http://www.w3.org/TR/2001/REC-SVG-20010904/DTD/svg10.dtd">
<svg version="1.0" xmlns="http://www.w3.org/2000/svg"
 width="674.000000pt" height="674.000000pt" viewBox="0 0 674.000000 674.000000"
 preserveAspectRatio="xMidYMid meet">
<metadata>
Created by potrace 1.14, written by Peter Selinger 2001-2017
</metadata>
<g transform="translate(0.000000,674.000000) scale(0.100000,-0.100000)"
fill="#000000" stroke="none">
<path d="M837 6214 c-1 -1 -27 -5 -57 -8 -51 -6 -141 -30 -165 -45 -5 -3 -12
-6 -15 -6 -3 0 -32 -17 -65 -37 -276 -168 -384 -513 -253 -808 29 -64 127
-230 137 -230 6 0 32 -43 36 -60 0 -3 9 -18 19 -35 27 -42 43 -68 64 -107 64
-112 366 -635 372 -643 4 -5 19 -30 32 -55 29 -52 30 -54 178 -310 62 -107
138 -238 169 -290 30 -52 56 -98 56 -102 0 -4 6 -13 13 -20 6 -6 12 -18 12
-25 0 -7 5 -13 10 -13 6 0 10 -4 10 -9 0 -5 22 -47 48 -93 27 -46 55 -94 63
-108 8 -14 16 -27 19 -30 3 -3 13 -21 22 -40 10 -19 28 -53 41 -75 60 -100
156 -265 191 -330 6 -11 16 -27 22 -35 6 -8 25 -40 41 -70 17 -30 50 -89 74
-130 25 -41 48 -82 52 -90 4 -8 18 -33 31 -55 14 -22 31 -51 39 -65 7 -14 24
-43 37 -65 12 -22 34 -60 48 -85 14 -25 33 -57 43 -72 11 -14 19 -28 19 -30 0
-5 168 -298 180 -313 4 -5 21 -35 37 -65 40 -73 247 -431 276 -478 25 -39 39
-70 41 -87 2 -16 38 -78 113 -195 76 -119 190 -206 328 -252 134 -44 316 -41
429 6 20 8 40 16 44 17 21 4 93 46 132 78 75 59 180 189 180 221 0 5 5 10 10
10 6 0 10 7 10 16 0 8 6 22 14 30 8 7 22 35 32 61 10 27 32 71 49 98 17 28 42
71 55 98 14 26 28 47 32 47 5 0 8 4 8 10 0 9 129 239 148 263 5 7 24 41 43 77
18 36 36 67 39 70 11 10 170 292 170 301 0 5 5 9 10 9 6 0 10 4 10 8 0 8 151
277 167 297 4 6 18 28 30 50 23 44 26 48 131 230 39 69 72 130 72 136 0 5 3 9
8 9 4 0 18 21 31 48 14 26 32 58 42 72 9 14 27 45 41 70 14 25 51 89 82 142
31 54 56 102 56 108 0 5 4 10 10 10 5 0 12 11 16 25 3 14 10 25 15 25 5 0 9 4
9 10 0 5 14 33 31 62 18 29 40 67 49 83 10 17 60 104 112 195 52 91 108 188
125 215 16 28 32 57 36 65 4 8 16 29 27 45 11 17 23 36 27 44 3 8 36 64 71
125 36 61 73 127 84 146 48 88 85 151 96 162 7 7 12 15 12 19 0 5 29 58 65
119 36 61 65 115 65 121 0 5 4 9 9 9 5 0 13 10 17 23 3 12 14 33 24 47 10 14
30 49 46 78 16 29 34 61 39 70 6 9 25 44 44 77 19 33 42 69 51 80 31 36 119
201 145 270 83 218 28 483 -135 654 -89 93 -206 162 -325 190 -38 9 -675 12
-2603 14 -1405 1 -2554 1 -2555 1z m4173 -1129 c0 -12 -24 -55 -32 -55 -4 0
-8 -4 -8 -9 0 -9 -87 -163 -173 -309 -15 -26 -31 -55 -34 -64 -3 -10 -9 -18
-13 -18 -4 0 -10 -8 -13 -17 -3 -10 -22 -45 -41 -78 -20 -33 -46 -78 -57 -100
-12 -22 -27 -43 -33 -47 -6 -4 -7 -8 -3 -8 4 0 -6 -20 -23 -45 -17 -25 -27
-45 -23 -45 4 0 4 -4 -2 -8 -5 -4 -15 -16 -21 -27 -26 -48 -39 -70 -44 -75 -3
-3 -14 -23 -25 -45 -11 -22 -23 -42 -26 -45 -3 -3 -9 -12 -13 -20 -4 -8 -12
-24 -19 -35 -7 -11 -42 -71 -77 -133 -36 -62 -69 -121 -75 -130 -65 -110 -105
-183 -105 -192 0 -5 -3 -10 -8 -10 -4 0 -18 -21 -31 -47 -14 -27 -32 -59 -42
-73 -9 -14 -27 -45 -41 -70 -14 -25 -43 -74 -63 -110 -21 -36 -48 -83 -59
-105 -11 -22 -26 -46 -33 -53 -7 -7 -13 -20 -13 -28 0 -8 -4 -14 -9 -14 -5 0
-11 -8 -14 -17 -4 -10 -17 -36 -29 -58 -99 -171 -140 -242 -149 -255 -5 -8
-15 -27 -22 -42 -6 -16 -14 -28 -18 -28 -4 0 -10 -11 -13 -25 -4 -14 -11 -25
-16 -25 -6 0 -10 -4 -10 -10 0 -5 -20 -44 -45 -86 -25 -41 -45 -77 -45 -78 0
-2 -29 -51 -64 -110 -45 -76 -66 -104 -72 -94 -16 24 -33 53 -48 83 -9 17 -24
44 -35 60 -17 28 -34 57 -79 138 -11 17 -53 91 -94 162 -42 72 -85 146 -95
165 -11 20 -53 92 -93 160 -40 69 -80 139 -90 155 -9 17 -43 75 -75 130 -86
149 -97 168 -112 195 -8 14 -26 46 -41 71 -15 25 -74 128 -132 228 -58 100
-112 194 -121 209 -16 26 -28 47 -81 142 -39 69 -227 393 -238 410 -5 8 -22
39 -37 68 -15 28 -31 52 -35 52 -4 0 -8 5 -8 10 0 11 -89 170 -100 180 -3 3
-11 16 -17 30 -12 24 -48 88 -93 163 l-22 37 1651 0 c908 0 1651 -2 1651 -5z"/>
</g>
</svg>
